<?xml version="1.0" encoding="UTF-8" standalone="no"?>
<svg
   version="1.1"
   id="library"
   width="15"
   height="15"
   viewBox="0 0 15 15"
   sodipodi:docname="Maki7-library.svg"
   inkscape:version="1.1.2 (0a00cf5339, 2022-02-04)"
   xmlns:inkscape="http://www.inkscape.org/namespaces/inkscape"
   xmlns:sodipodi="http://sodipodi.sourceforge.net/DTD/sodipodi-0.dtd"
   xmlns="http://www.w3.org/2000/svg"
   xmlns:svg="http://www.w3.org/2000/svg">
  <defs
     id="defs7" />
  <sodipodi:namedview
     id="namedview5"
     pagecolor="#ffffff"
     bordercolor="#666666"
     borderopacity="1.0"
     inkscape:pageshadow="2"
     inkscape:pageopacity="0.0"
     inkscape:pagecheckerboard="0"
     showgrid="false"
     inkscape:zoom="37.266667"
     inkscape:cx="-0.21466905"
     inkscape:cy="7.5"
     inkscape:window-width="1440"
     inkscape:window-height="847"
     inkscape:window-x="0"
     inkscape:window-y="0"
     inkscape:window-maximized="1"
     inkscape:current-layer="library" />
  <path
     d="M1.0819,9.9388C0.9871,9.867,1.0007,9.7479,1.0007,9.7479L1.5259,3.5c0,0,0.0082-0.0688,0.0388-0.104
	C1.584,3.374,1.6084,3.342,1.6544,3.3232C2.1826,3.1072,5.0537,1.5519,6.5,3c0.2397,0.2777,0.4999,0.6876,0.4999,1v5.2879
	c0,0,0.0062,0.1122-0.0953,0.1801c-0.0239,0.016-0.124,0.0616-0.242,0.0026c-2.2253-1.1134-4.711,0.1546-5.3381,0.4871
	C1.1987,10.0244,1.1006,9.9531,1.0819,9.9388z M13.6754,9.9577c-0.6271-0.3325-3.1128-1.6005-5.3381-0.4871
	c-0.118,0.059-0.2181,0.0134-0.242-0.0026C7.9939,9.4001,8.0001,9.2879,8.0001,9.2879V4c0-0.3124,0.2602-0.7223,0.4999-1
	c1.4463-1.4481,4.2991,0.1071,4.8273,0.3232c0.046,0.0188,0.0704,0.0508,0.0897,0.0728C13.4476,3.4312,13.4558,3.5,13.4558,3.5
	l0.5435,6.2479c0,0,0.0136,0.1191-0.0812,0.1909C13.8994,9.9531,13.8013,10.0244,13.6754,9.9577z M8.8647,12.6863
	c0.0352-0.0085,0.0964-0.0443,0.1179-0.0775c0.0236-0.0364,0.0378-0.0617,0.0423-0.1088c0.0495-0.9379,1.6245-1.8119,4.6477-0.0298
	c0.0775,0.0441,0.1666,0.0396,0.2425-0.0155C14.0014,12.392,14,12.2859,14,12.2859v-0.5542c0,0,0.0003-0.0764-0.0272-0.1184
	c-0.0205-0.0312-0.0476-0.0643-0.0926-0.0858c-2.0254-1.3145-4.5858-1.8972-5.8854-0.1592
	c-0.0181,0.0423-0.0353,0.0613-0.0728,0.0905C7.8654,11.5028,7.7964,11.5,7.7964,11.5H7.2109c0,0-0.069,0.0028-0.1256-0.0412
	c-0.0375-0.0292-0.0547-0.0482-0.0728-0.0905c-1.2996-1.738-3.86-1.1828-5.8854,0.1317c-0.045,0.0215-0.0721,0.0546-0.0926,0.0858
	c-0.0275,0.042-0.0272,0.1184-0.0272,0.1184v0.5542c0,0-0.0014,0.1061,0.0849,0.1688c0.0759,0.0551,0.165,0.0596,0.2425,0.0155
	c3.0232-1.7821,4.5982-0.8806,4.6477,0.0573c0.0045,0.0471,0.0187,0.0724,0.0423,0.1088c0.0215,0.0332,0.0827,0.069,0.1179,0.0775
	C6.8645,12.8656,7.9112,12.9363,8.8647,12.6863z"
     id="path2" />
  <path
     style="opacity:1;fill:#0000ff;fill-opacity:1;stroke:none;stroke-width:1.61002;stroke-linecap:round;stroke-miterlimit:4;stroke-dasharray:none;stroke-dashoffset:0;stroke-opacity:1"
     d="M 1.0780227,9.906589 C 1.0459331,9.8724311 1.019245,9.8150742 1.0187158,9.7791292 1.0181866,9.7431843 1.1342004,8.313059 1.2765244,6.6010733 1.495255,3.9700075 1.5425082,3.477992 1.5819112,3.421288 1.6653065,3.3012756 2.7519511,2.8369389 3.4114022,2.639524 4.448236,2.3291348 5.3366168,2.3305264 5.970483,2.6435326 6.3653818,2.8385355 6.6281233,3.1103222 6.8500894,3.5534212 l 0.113238,0.2260509 0.00707,2.7990755 c 0.00701,2.7743732 0.0066,2.7995522 -0.046959,2.8531081 -0.077807,0.077807 -0.1645981,0.06751 -0.4270439,-0.050662 C 5.1435266,8.77183 3.4659603,8.9148812 1.6126585,9.7974447 1.4148735,9.8916317 1.226795,9.9686945 1.1947063,9.9686945 c -0.032089,0 -0.084598,-0.027947 -0.1166879,-0.062105 z"
     id="path101" />
  <path
     style="opacity:1;fill:#0000ff;fill-opacity:1;stroke:none;stroke-width:1.61002;stroke-linecap:round;stroke-miterlimit:4;stroke-dasharray:none;stroke-dashoffset:0;stroke-opacity:1"
     d="M 13.537567,9.869663 C 13.229106,9.71137 12.717155,9.4952775 12.37903,9.380649 10.930939,8.8897288 9.5943677,8.8898477 8.5036012,9.3809925 8.2411554,9.4991654 8.1543643,9.509462 8.0765575,9.4316549 8.0230014,9.378099 8.022587,9.3529199 8.0295986,6.5785468 l 0.00707,-2.7990747 0.113238,-0.2260509 C 8.4434939,2.967357 8.8564073,2.634758 9.4856887,2.4774611 c 0.344091,-0.08601 0.9955403,-0.08579 1.4308873,4.828e-4 0.381513,0.075605 0.843767,0.2081864 1.225642,0.3515334 0.494782,0.1857298 1.225519,0.5201617 1.26307,0.5780613 0.02365,0.036459 0.122728,1.0622483 0.305028,3.1578983 0.148503,1.7071441 0.270006,3.1449991 0.270006,3.1952332 0,0.1086676 -0.09172,0.2086801 -0.189565,0.2067043 -0.03594,-7.272e-4 -0.14988,-0.044696 -0.25319,-0.097711 z"
     id="path140" />
  <path
     style="opacity:1;fill:#4165a5;fill-opacity:1;stroke:none;stroke-width:1.61002;stroke-linecap:round;stroke-miterlimit:4;stroke-dasharray:none;stroke-dashoffset:0;stroke-opacity:1"
     d="M 6.9633274,12.811601 C 6.7142042,12.785825 6.3414958,12.72271 6.1652061,12.676446 6.0564703,12.64791 5.9838998,12.54779 5.9838998,12.426311 c 0,-0.160734 -0.1132859,-0.375454 -0.292716,-0.554809 -0.1912419,-0.191161 -0.3966531,-0.305893 -0.7001283,-0.391054 -0.2745677,-0.07705 -1.0196912,-0.06979 -1.3953489,0.01359 -0.6777015,0.150428 -1.4227968,0.450039 -2.1262935,0.855007 -0.2284656,0.131516 -0.3312745,0.13819 -0.4094513,0.02658 -0.05892,-0.08412 -0.057697,-0.706444 0.00155,-0.791038 0.023011,-0.03285 0.1950818,-0.150854 0.3823793,-0.262224 1.1221828,-0.667271 2.2673033,-1.032079 3.2378693,-1.031508 0.660903,3.88e-4 1.3252721,0.197338 1.7448899,0.517266 0.1677333,0.127884 0.4659875,0.423622 0.5530076,0.548342 0.1052966,0.150914 0.2013663,0.177258 0.6002434,0.164596 l 0.3161482,-0.01004 0.097143,-0.120418 c 0.4786627,-0.593346 0.9738763,-0.897084 1.6918369,-1.037682 0.3292306,-0.06447 0.9663576,-0.05795 1.3704216,0.01404 0.818086,0.145747 1.770591,0.524131 2.582965,1.026086 0.360441,0.222712 0.341901,0.18977 0.341901,0.607478 0,0.345166 -0.0025,0.361299 -0.06586,0.424661 -0.03623,0.03623 -0.09113,0.06586 -0.122002,0.06586 -0.03087,0 -0.149157,-0.05365 -0.262848,-0.119222 -0.305946,-0.176457 -1.000477,-0.505748 -1.306889,-0.619622 -0.392562,-0.14589 -0.921885,-0.272151 -1.289632,-0.307619 -0.861609,-0.0831 -1.5627929,0.183742 -1.8216126,0.693232 -0.025013,0.04924 -0.061823,0.167644 -0.0818,0.263126 -0.019977,0.09548 -0.050624,0.190834 -0.068103,0.211895 -0.120275,0.144923 -1.3430501,0.266546 -1.9982436,0.198756 z"
     id="path179" />
  <path
     style="opacity:1;fill:#4165a5;fill-opacity:1;stroke:none;stroke-width:1.61002;stroke-linecap:round;stroke-miterlimit:4;stroke-dasharray:none;stroke-dashoffset:0;stroke-opacity:1"
     d="m 1.0991252,9.9029957 c -0.036317,-0.036317 -0.06603,-0.094616 -0.06603,-0.1295538 0,-0.077866 0.146583,-1.8961771 0.3098201,-3.8432093 C 1.4774711,4.3252958 1.5563369,3.5134099 1.5848443,3.4396832 1.6060303,3.3848916 2.1064258,3.1345969 2.5312282,2.9663079 3.5865888,2.5482182 4.2287273,2.4086282 4.9730369,2.4355004 5.2926502,2.4470396 5.4119793,2.4631491 5.60723,2.5211167 6.2009337,2.6973804 6.5774965,3.0252842 6.8802966,3.629679 l 0.084238,0.1681405 -0.00731,2.786152 C 6.9511495,8.898044 6.9436707,9.3776407 6.913083,9.4144892 6.8574751,9.4814791 6.7419182,9.4684304 6.4985238,9.3676771 6.2074658,9.2471933 5.7993284,9.1233424 5.5008945,9.0649428 5.1633123,8.9988824 4.2184801,8.9991472 3.8372093,9.0654097 3.2261223,9.1716121 2.6230085,9.3520637 2.0126996,9.6113029 1.8209366,9.6927574 1.6291114,9.7774642 1.5864214,9.7995403 c -0.04269,0.022076 -0.154939,0.069241 -0.249442,0.1048121 l -0.1718238,0.064674 z"
     id="path1151" />
  <path
     style="opacity:1;fill:#4165a5;fill-opacity:1;stroke:none;stroke-width:1.61002;stroke-linecap:round;stroke-miterlimit:4;stroke-dasharray:none;stroke-dashoffset:0;stroke-opacity:1"
     d="M 13.640579,9.9020622 C 13.561785,9.8688639 13.38864,9.7904903 13.255814,9.7278982 12.561435,9.4006849 11.844471,9.1760928 11.141617,9.0656165 10.727698,9.000556 9.8666868,9.0003427 9.5196126,9.065214 9.1937725,9.1261173 8.8829535,9.2174823 8.5490324,9.3505159 8.2540098,9.4680526 8.1440193,9.4832791 8.0869171,9.4144889 8.0563294,9.3776407 8.0488505,8.898044 8.0427775,6.5839715 L 8.0354656,3.7978195 8.1197035,3.629679 C 8.3594435,3.1511534 8.6480409,2.8464257 9.0429338,2.6548478 9.3708593,2.4957584 9.5604774,2.4540672 10.035926,2.4365194 c 0.615278,-0.022709 1.088067,0.060024 1.891623,0.3310137 0.355401,0.1198545 1.183365,0.4711774 1.368515,0.5806904 0.05166,0.030553 0.09627,0.056808 0.09914,0.058345 0.02256,0.012083 0.181558,1.7158576 0.40829,4.3751848 0.188048,2.2056016 0.176399,2.0155431 0.128057,2.0893229 -0.06023,0.091915 -0.128979,0.099236 -0.290968,0.030986 z"
     id="path1190" />
</svg>
